<?xml version="1.0" encoding="UTF-8"?>
<svg id="Layer_1" data-name="Layer 1" xmlns="http://www.w3.org/2000/svg" viewBox="0 0 48 48">
  <defs>
    <style>
      .cls-1 {
        fill: #231f20;
      }
    </style>
  </defs>
  <g>
    <g>
      <path class="cls-1" d="M29.24,27.18h7.72s2.76-.5,3.54-2.64h-13s2.19.4,1.74,2.64Z"/>
      <path class="cls-1" d="M29.24,27.21s-.02,0-.03-.01c0,0,0-.02,0-.03.13-.66.04-1.22-.26-1.67-.51-.74-1.45-.92-1.45-.92-.02,0-.03-.02-.03-.04s.02-.03.04-.03h13s.02,0,.03.02c0,0,0,.02,0,.03-.77,2.14-3.54,2.66-3.56,2.66h-7.73ZM29.29,27.14h7.68s2.71-.51,3.49-2.57h-12.69c.33.11.89.36,1.24.88.31.46.4,1.02.28,1.69Z"/>
    </g>
    <g>
      <path class="cls-1" d="M29.22,18.28l-.42-2.19s1.3.05,2.47-.62c0,0,.42.1.82.67s.97-2.07-3.39-1.89c0,0-.07-.95-1.37-.95s-2.07.6-3.64,2.27h1.12l-1.97,2.71h6.38Z"/>
      <path class="cls-1" d="M29.22,18.32h-6.38s-.03,0-.03-.02c0-.01,0-.03,0-.04l1.93-2.66h-1.05s-.03,0-.03-.02,0-.03,0-.04c1.58-1.68,2.37-2.28,3.66-2.28,1.17,0,1.37.77,1.4.95,3.02-.11,3.55,1.11,3.64,1.49.06.26.01.49-.11.55-.03.01-.11.03-.2-.09-.35-.5-.72-.63-.79-.65-1.03.59-2.16.62-2.42.62,0,0,0,0-.01,0l.42,2.15s0,.02,0,.03-.02.01-.03.01ZM22.91,18.25h6.26l-.42-2.15s0-.02,0-.03c0,0,.02-.01.03-.01.01,0,1.3.04,2.45-.62,0,0,.02,0,.03,0,.02,0,.44.11.84.69.02.03.07.08.11.06.07-.03.13-.21.07-.47-.18-.75-1.21-1.53-3.6-1.43,0,0,0,0,0,0-.02,0-.03-.01-.04-.03,0-.04-.09-.91-1.33-.91s-2,.55-3.55,2.2h1.04s.03,0,.03.02c0,.01,0,.03,0,.04l-1.93,2.66Z"/>
    </g>
    <g>
      <path class="cls-1" d="M18.88,18.28l.42-2.19s-1.3.05-2.47-.62c0,0-.42.1-.82.67s-.97-2.07,3.39-1.89c0,0,.07-.95,1.37-.95s2.07.6,3.64,2.27h-1.12s1.97,2.71,1.97,2.71h-6.38Z"/>
      <path class="cls-1" d="M25.25,18.32h-6.38s-.02,0-.03-.01,0-.02,0-.03l.42-2.15c-.24,0-1.39-.03-2.43-.62-.07.02-.44.16-.79.65-.08.12-.16.1-.2.09-.12-.05-.17-.29-.11-.55.09-.38.61-1.6,3.64-1.49.03-.17.23-.95,1.4-.95,1.29,0,2.08.6,3.66,2.28,0,.01.01.03,0,.04s-.02.02-.03.02h-1.05l1.93,2.66s0,.02,0,.04c0,.01-.02.02-.03.02ZM18.92,18.25h6.26l-1.93-2.66s0-.02,0-.04c0-.01.02-.02.03-.02h1.04c-1.55-1.65-2.3-2.2-3.55-2.2s-1.33.9-1.33.91c0,.02-.02.03-.04.03-2.38-.09-3.42.68-3.6,1.43-.06.26,0,.44.07.47.04.02.09-.03.11-.06.4-.58.82-.68.84-.69,0,0,.02,0,.03,0,1.15.66,2.43.62,2.45.62.01,0,.02,0,.03.01,0,0,0,.02,0,.03l-.42,2.15Z"/>
    </g>
    <g>
      <path class="cls-1" d="M27.18,18.56h18.8s-1.42,2.69-4.18,2.69h-14.17s.18-1.7-.45-2.69Z"/>
      <path class="cls-1" d="M41.8,21.28h-14.17s-.02,0-.03-.01c0,0,0-.02,0-.03,0-.02.17-1.69-.45-2.67,0-.01,0-.02,0-.04s.02-.02.03-.02h18.8s.02,0,.03.02c0,.01,0,.02,0,.03-.01.03-1.46,2.71-4.22,2.71ZM27.67,21.21h14.13c2.5,0,3.91-2.25,4.12-2.62h-18.68c.54.91.45,2.36.43,2.62Z"/>
    </g>
    <g>
      <path class="cls-1" d="M27.67,21.46h15.77s-1.42,2.83-4.18,2.83h-11.77l.18-2.83Z"/>
      <path class="cls-1" d="M39.26,24.33h-11.77s-.02,0-.03-.01c0,0-.01-.02,0-.03l.18-2.83s.02-.03.04-.03h15.77s.02,0,.03.02c0,.01,0,.02,0,.03-.01.03-1.46,2.85-4.22,2.85ZM27.53,24.26h11.73c2.51,0,3.92-2.38,4.13-2.76h-15.68l-.18,2.76Z"/>
    </g>
    <g>
      <path class="cls-1" d="M29.08,26.69c0-1.07-.82-1.95-1.87-2.04.26-2.17.38-4.74-.25-6.09h-2.95v16.14l.67-1.72h.58v-2.39l-.39-1.79s.83,3.47,2.64,3.47l-.66-2.13.65.11-.75-1.54c.09.01.19.02.29.02,1.13,0,2.05-.92,2.05-2.05Z"/>
      <path class="cls-1" d="M24,34.73s0,0,0,0c-.02,0-.03-.02-.03-.03v-16.14s.02-.04.04-.04h2.95s.03,0,.03.02c.65,1.38.5,4.06.26,6.08,1.05.11,1.87,1.01,1.87,2.07,0,1.22-1.06,2.21-2.31,2.07l.72,1.48s0,.03,0,.04c0,.01-.02.02-.03.01l-.59-.1.64,2.07s0,.02,0,.03c0,0-.02.01-.03.01-1.26,0-2.05-1.63-2.42-2.67l.21.94s0,0,0,0v2.39s-.02.04-.04.04h-.56l-.66,1.7s-.02.02-.03.02ZM24.04,18.59v15.92l.6-1.54s.02-.02.03-.02h.55v-2.35l-.39-1.79s0-.04.03-.04c.02,0,.04,0,.04.03,0,.03.83,3.39,2.56,3.45l-.65-2.08s0-.02,0-.03c0,0,.02-.01.03-.01l.58.1-.72-1.47s0-.03,0-.04c0-.01.02-.02.03-.01.1.01.19.02.29.02,1.11,0,2.01-.9,2.01-2.01,0-1.04-.81-1.92-1.84-2,0,0-.02,0-.02-.01s0-.02,0-.03c.24-2,.4-4.67-.24-6.05h-2.89Z"/>
    </g>
    <path class="cls-1" d="M31.41,32.81s-.02,0-.03,0c-.43-.08-.83-.29-1.14-.61-.86-.86-.86-2.27,0-3.13.86-.86,2.27-.86,3.13,0,.35.35.56.79.63,1.27.01.1-.06.19-.15.2-.1.01-.19-.06-.2-.15-.05-.41-.24-.78-.53-1.07-.73-.73-1.9-.73-2.63,0-.73.73-.73,1.91,0,2.63.26.26.6.44.96.51.1.02.16.11.14.21-.02.08-.09.14-.17.14Z"/>
    <g>
      <rect class="cls-1" x="30.24" y="26.2" width=".46" height="6.08" rx=".23" ry=".23" transform="translate(-11.75 30.11) rotate(-45)"/>
      <path class="cls-1" d="M32.46,31.5c-.07,0-.14-.03-.19-.08l-3.97-3.97c-.1-.1-.1-.27,0-.38.1-.1.28-.1.38,0l3.97,3.97c.1.1.1.27,0,.38h0c-.05.05-.12.08-.19.08ZM28.48,27.06c-.05,0-.1.02-.14.06-.08.08-.08.2,0,.28l3.97,3.97c.08.08.2.08.28,0h0c.08-.08.08-.2,0-.28l-3.97-3.97s-.09-.06-.14-.06ZM32.62,31.4h0,0Z"/>
    </g>
    <g>
      <path class="cls-1" d="M18.76,27.18h-7.72s-2.76-.5-3.54-2.64h13s-2.19.4-1.74,2.64Z"/>
      <path class="cls-1" d="M18.76,27.21h-7.72s-2.8-.53-3.57-2.66c0-.01,0-.02,0-.03,0,0,.02-.02.03-.02h13s.03.01.04.03-.01.03-.03.04c0,0-.95.18-1.45.92-.31.45-.39,1.01-.26,1.67,0,.01,0,.02,0,.03,0,0-.02.01-.03.01ZM7.55,24.57c.78,2.06,3.47,2.57,3.49,2.57h7.67c-.12-.66-.03-1.23.28-1.69.36-.52.92-.78,1.24-.88H7.55Z"/>
    </g>
    <g>
      <path class="cls-1" d="M20.82,18.56H2.02s1.42,2.69,4.18,2.69h14.17s-.18-1.7.45-2.69Z"/>
      <path class="cls-1" d="M20.37,21.28H6.2c-2.75,0-4.2-2.68-4.22-2.71,0-.01,0-.02,0-.03,0-.01.02-.02.03-.02h18.8s.02,0,.03.02,0,.03,0,.04c-.62.97-.45,2.65-.45,2.67,0,0,0,.02,0,.03,0,0-.02.01-.03.01ZM2.08,18.59c.22.37,1.63,2.62,4.12,2.62h14.13c-.02-.26-.11-1.71.43-2.62H2.08Z"/>
    </g>
    <g>
      <path class="cls-1" d="M20.33,21.46H4.56s1.42,2.83,4.18,2.83h11.77s-.18-2.83-.18-2.83Z"/>
      <path class="cls-1" d="M20.51,24.33h-11.77c-2.75,0-4.2-2.82-4.22-2.85,0-.01,0-.02,0-.03,0-.01.02-.02.03-.02h15.77s.03.01.04.03l.18,2.83s0,.02,0,.03c0,0-.02.01-.03.01ZM4.62,21.49c.21.38,1.62,2.76,4.13,2.76h11.73l-.18-2.76H4.62Z"/>
    </g>
    <g>
      <path class="cls-1" d="M18.92,26.69c0-1.07.82-1.95,1.87-2.04-.26-2.17-.38-4.74.25-6.09h2.95v16.14s-.67-1.72-.67-1.72h-.58v-2.39s.39-1.79.39-1.79c0,0-.83,3.47-2.64,3.47l.66-2.13-.65.11.75-1.54c-.09.01-.19.02-.29.02-1.13,0-2.05-.92-2.05-2.05Z"/>
      <path class="cls-1" d="M24,34.73s-.03,0-.03-.02l-.66-1.7h-.56s-.04-.02-.04-.04v-2.39s0,0,0,0l.21-.94c-.37,1.04-1.16,2.67-2.42,2.67-.01,0-.02,0-.03-.01,0,0,0-.02,0-.03l.64-2.07-.59.1s-.03,0-.03-.01c0-.01,0-.02,0-.04l.72-1.48c-.08,0-.15.01-.23.01-1.15,0-2.08-.93-2.08-2.08,0-1.06.82-1.96,1.87-2.07-.24-2.02-.39-4.69.26-6.08,0-.01.02-.02.03-.02h2.95s.04.02.04.04v16.14s-.01.03-.03.03c0,0,0,0,0,0ZM22.78,32.94h.55s.03,0,.03.02l.6,1.54v-15.92h-2.89c-.64,1.38-.48,4.05-.24,6.05,0,0,0,.02,0,.03s-.01.01-.02.01c-1.03.09-1.84.97-1.84,2,0,1.11.9,2.01,2.01,2.01.09,0,.19,0,.29-.02.01,0,.03,0,.03.01,0,.01,0,.02,0,.04l-.72,1.47.58-.1s.02,0,.03.01c0,0,.01.02,0,.03l-.65,2.08c1.72-.06,2.55-3.41,2.56-3.45,0-.02.02-.03.04-.03.02,0,.03.02.03.04l-.39,1.79v2.35Z"/>
    </g>
    <path class="cls-1" d="M16.59,32.81c-.08,0-.16-.06-.17-.14-.02-.1.04-.19.14-.21.36-.07.7-.25.96-.51.73-.73.73-1.9,0-2.63-.73-.73-1.91-.72-2.63,0-.29.29-.47.66-.53,1.07-.01.1-.1.16-.2.15-.1-.01-.16-.1-.15-.2.06-.49.28-.93.63-1.27.86-.86,2.27-.86,3.13,0s.86,2.27,0,3.13c-.31.31-.71.52-1.14.61-.01,0-.02,0-.03,0Z"/>
    <g>
      <rect class="cls-1" x="17.3" y="26.2" width=".46" height="6.08" rx=".23" ry=".23" transform="translate(9.25 62.32) rotate(-135)"/>
      <path class="cls-1" d="M15.54,31.5c-.07,0-.14-.03-.19-.08h0c-.1-.1-.1-.27,0-.38l3.97-3.97c.1-.1.28-.1.38,0,.1.1.1.27,0,.38l-3.97,3.97c-.05.05-.12.08-.19.08ZM15.41,31.37c.08.08.2.08.28,0l3.97-3.97c.08-.08.08-.2,0-.28-.07-.07-.2-.07-.28,0l-3.97,3.97c-.08.08-.08.2,0,.28h0Z"/>
    </g>
  </g>
  <path class="cls-1" d="M45.68,46.86H2.32c-.65,0-1.18-.53-1.18-1.18V2.32c0-.65.53-1.18,1.18-1.18h43.36c.65,0,1.18.53,1.18,1.18v43.36c0,.65-.53,1.18-1.18,1.18ZM2.32,1.67c-.36,0-.65.29-.65.65v43.36c0,.36.29.65.65.65h43.36c.36,0,.65-.29.65-.65V2.32c0-.36-.29-.65-.65-.65H2.32Z"/>
  <g>
    <path class="cls-1" d="M28.31,4.63h-8.62c-.65,0-1.18-.53-1.18-1.18V1.4c0-.15.12-.27.27-.27s.27.12.27.27v2.05c0,.36.29.65.65.65h8.62c.36,0,.65-.29.65-.65V1.4c0-.15.12-.27.27-.27s.27.12.27.27v2.05c0,.65-.53,1.18-1.18,1.18Z"/>
    <path class="cls-1" d="M29.23,46.86c-.15,0-.27-.12-.27-.27v-2.05c0-.36-.29-.65-.65-.65h-8.62c-.36,0-.65.29-.65.65v2.05c0,.15-.12.27-.27.27s-.27-.12-.27-.27v-2.05c0-.65.53-1.18,1.18-1.18h8.62c.65,0,1.18.53,1.18,1.18v2.05c0,.15-.12.27-.27.27Z"/>
  </g>
  <g>
    <path class="cls-1" d="M46.6,44.07h-1.02c-.48,0-.72-.51-.72-1.53v-17.09c0-1.01.24-1.53.72-1.53h1.02c.15,0,.27.12.27.27s-.12.27-.27.27h-1.02s-.19.12-.19.99v17.09c0,.88.19.99.19.99h1.03c.15,0,.27.12.27.27s-.12.27-.27.27Z"/>
    <path class="cls-1" d="M2.43,44.07h-1.02c-.15,0-.27-.12-.27-.27s.12-.27.27-.27h1.02s.19-.12.19-.99v-17.09c0-.88-.19-.99-.19-.99h-1.03c-.15,0-.27-.12-.27-.27s.12-.27.27-.27h1.02c.48,0,.72.51.72,1.53v17.09c0,.48-.05.84-.16,1.09-.16.38-.43.44-.57.44Z"/>
  </g>
  <g>
    <path class="cls-1" d="M46.6,15.19h-1.02c-.48,0-.72-.28-.72-.83V5.06c0-.55.24-.83.72-.83h1.02c.15,0,.27.07.27.15s-.12.15-.27.15h-1.02s-.19.06-.19.54v9.3c0,.48.19.54.19.54h1.03c.15,0,.27.07.27.15s-.12.15-.27.15Z"/>
    <path class="cls-1" d="M2.43,15.19h-1.02c-.15,0-.27-.07-.27-.15s.12-.15.27-.15h1.02s.19-.06.19-.54V5.06c0-.48-.19-.54-.19-.54h-1.03c-.15,0-.27-.07-.27-.15s.12-.15.27-.15h1.02c.48,0,.72.28.72.83v9.3c0,.26-.05.46-.16.59-.16.21-.43.24-.57.24Z"/>
  </g>
  <g>
    <path class="cls-1" d="M21.63,41.83c-.17,0-.33-.08-.44-.22-.15-.18-.16-.43-.05-.64l2.36-4.1c.1-.18.29-.28.49-.28h0c.21,0,.39.11.49.28l2.36,4.1c.12.2.1.45-.05.64-.15.18-.38.26-.61.19l-2.19-.65s-.01,0-.02,0l-2.19.65c-.05.02-.11.02-.16.02ZM24,37.14s-.03.01-.03.02l-2.36,4.1s-.01.02,0,.04c.01.02.03.01.04.01l2.19-.65c.11-.03.22-.03.33,0l2.19.65s.02,0,.04-.01c.01-.02,0-.03,0-.04l-2.36-4.1h0s0-.02-.03-.02h0Z"/>
    <path class="cls-1" d="M24,11.4c-.21,0-.39-.11-.49-.28h0s-2.36-4.1-2.36-4.1c-.12-.2-.1-.45.05-.64.15-.18.38-.26.61-.19l2.19.65s.01,0,.02,0l2.19-.65c.23-.07.46,0,.61.19.15.18.16.43.05.64l-2.36,4.1c-.1.18-.29.28-.49.28h0ZM23.97,10.85s0,.02.03.02.03-.01.03-.02l2.36-4.1s.01-.02,0-.04c-.01-.02-.03-.01-.04-.01l-2.19.65c-.11.03-.22.03-.33,0l-2.19-.65s-.02,0-.04.01c-.01.02,0,.03,0,.04l2.36,4.1Z"/>
  </g>
  <path class="cls-1" d="M24,30.86c-3.79,0-6.86-3.08-6.86-6.86s3.08-6.86,6.86-6.86,6.86,3.08,6.86,6.86-3.08,6.86-6.86,6.86ZM24,17.67c-3.49,0-6.33,2.84-6.33,6.33s2.84,6.33,6.33,6.33,6.33-2.84,6.33-6.33-2.84-6.33-6.33-6.33Z"/>
</svg>